# xmcd
#
# Track frame offsets: 
#        150
#        10737
#        25549
#        41449
#        60796
#        75123
#        91024
#        106811
#        124812
#        143450
#        154287
#        168875
#        185672
#
# Disc length: 2739 seconds
#
# Revision: 0
# Processed by: cddbd v1.5.2PL0 Copyright (c) Steve Scherf et al.
# Submitted via: ExactAudioCopy v1.3
#
DISCID=820ab10d
DTITLE=Glenn Reid - Not Being With You
DYEAR=2016
DGENRE=Country
TTITLE0=Shelter Of Your Smile
TTITLE1=Natural World
TTITLE2=Sweet Little Deceiver
TTITLE3=Not Being With You
TTITLE4=Play Me An Anthem
TTITLE5=Long Gone
TTITLE6=This Time We Win
TTITLE7=Chetwynd Girls
TTITLE8=Baby Tonight
TTITLE9=Quite A Pile
TTITLE10=C'est La Vie
TTITLE11=Same Shit, Different Day
TTITLE12=You Needed Me
EXTD=
EXTT0=
EXTT1=
EXTT2=
EXTT3=
EXTT4=
EXTT5=
EXTT6=
EXTT7=
EXTT8=
EXTT9=
EXTT10=
EXTT11=
EXTT12=
PLAYORDER=
